HIERARCHY
ROOT Hips
{
	OFFSET -3.958830 18.904000 13.208200
	CHANNELS 6 Xposition Yposition Zposition Zrotation Yrotation Xrotation 
	JOINT LHipJoint
	{
		OFFSET 0.000000 0.000000 0.000000
		CHANNELS 3 Zrotation Yrotation Xrotation
		JOINT LeftUpLeg
		{
			OFFSET 1.800000 -1.400000 0.085000
			CHANNELS 3 Zrotation Yrotation Xrotation
			JOINT LeftLeg
			{
				OFFSET 2.215000 -6.000000 0.000000
				CHANNELS 3 Zrotation Yrotation Xrotation
				JOINT LeftFoot
				{
					OFFSET 2.500000 -6.900000 0.000000
					CHANNELS 3 Zrotation Yrotation Xrotation
					JOINT LeftToeBase
					{
						OFFSET 0.200000 -0.500000 1.950000
						CHANNELS 3 Zrotation Yrotation Xrotation
						End Site
						{
							OFFSET 0.000000 0.000000 0.000000
						}
					}
				}
			}
		}
	}
	JOINT RHipJoint
	{
		OFFSET 0.000000 0.000000 0.000000
		CHANNELS 3 Zrotation Yrotation Xrotation
		JOINT RightUpLeg
		{
			OFFSET -1.800000 -1.400000 0.085000
			CHANNELS 3 Zrotation Yrotation Xrotation
			JOINT RightLeg
			{
				OFFSET -2.215000 -6.000000 0.000000
				CHANNELS 3 Zrotation Yrotation Xrotation
				JOINT RightFoot
				{
					OFFSET -2.500000 -6.900000 0.000000
					CHANNELS 3 Zrotation Yrotation Xrotation
					JOINT RightToeBase
					{
						OFFSET -0.200000 -0.500000 1.950000
						CHANNELS 3 Zrotation Yrotation Xrotation
						End Site
						{
							OFFSET 0.000000 0.000000 0.000000
						}
					}
				}
			}
		}
	}
	JOINT LowerBack
	{
		OFFSET 0.000000 0.000000 0.000000
		CHANNELS 3 Zrotation Yrotation Xrotation
		JOINT Spine
		{
			OFFSET -0.087000 1.940000 -0.288900
			CHANNELS 3 Zrotation Yrotation Xrotation
			JOINT Spine1
			{
				OFFSET 0.000000 1.950000 0.060000
				CHANNELS 3 Zrotation Yrotation Xrotation
				JOINT Neck
				{
					OFFSET 0.000000 0.000000 0.000000
					CHANNELS 3 Zrotation Yrotation Xrotation
					JOINT Neck1
					{
						OFFSET 0.000000 1.600000 0.340000
						CHANNELS 3 Zrotation Yrotation Xrotation
						JOINT Head
						{
							OFFSET 0.000000 1.667000 -0.240000
							CHANNELS 3 Zrotation Yrotation Xrotation
							End Site
							{
								OFFSET 0.000000 0.000000 0.000000
							}
						}
					}
				}
				JOINT LeftShoulder
				{
					OFFSET 0.000000 0.000000 0.000000
					CHANNELS 3 Zrotation Yrotation Xrotation
					JOINT LeftArm
					{
						OFFSET 2.700000 1.550000 -0.730000
						CHANNELS 3 Zrotation Yrotation Xrotation
						JOINT LeftForeArm
						{
							OFFSET 5.450000 0.000000 0.000000
							CHANNELS 3 Zrotation Yrotation Xrotation
							JOINT LeftHand
							{
								OFFSET 3.450000 0.000000 0.000000
								CHANNELS 3 Zrotation Yrotation Xrotation
								JOINT LeftHandIndex1
								{
									OFFSET 0.750000 0.000000 0.000000
									CHANNELS 3 Zrotation Yrotation Xrotation
									End Site
									{
										OFFSET 0.000000 0.000000 0.000000
									}
								}
							}
						}
					}
				}
				JOINT RightShoulder
				{
					OFFSET 0.000000 0.000000 0.000000
					CHANNELS 3 Zrotation Yrotation Xrotation
					JOINT RightArm
					{
						OFFSET -2.700000 1.550000 -0.730000
						CHANNELS 3 Zrotation Yrotation Xrotation
						JOINT RightForeArm
						{
							OFFSET -5.450000 0.000000 0.000000
							CHANNELS 3 Zrotation Yrotation Xrotation
							JOINT RightHand
							{
								OFFSET -3.450000 0.000000 0.000000
								CHANNELS 3 Zrotation Yrotation Xrotation
								JOINT RightHandIndex1
								{
									OFFSET -0.750000 0.000000 0.000000
									CHANNELS 3 Zrotation Yrotation Xrotation
									End Site
									{
										OFFSET 0.000000 0.000000 0.000000
									}
								}
							}
						}
					}
				}
			}
		}
	}
}
MOTION
Frames: 4
Frame Time: 0.016667
-1.053550 17.136300 -6.818200 -3.967152 -9.281351 4.087202 -14.928233 13.203489 2.756932 6.120867 -0.750601 -10.308560 -10.283626 6.708378 12.144703 -0.287615 4.566193 3.177636 0.113340 -0.094310 -0.128440 18.509193 -10.940468 2.774595 -2.127586 1.322498 -13.148550 9.562277 -5.633844 13.569279 -0.065981 -3.656141 3.291228 0.013850 0.641620 0.166840 -4.165811 -1.283744 -6.924946 12.999830 0.308189 6.528931 -4.331434 0.767221 4.886129 1.821366 -5.771941 -5.496400 -13.032741 8.016451 38.119835 1.941960 1.438910 2.546980 -24.681839 0.705970 -1.223884 -51.491219 -8.274451 0.515093 -19.802813 -14.505869 1.073547 -4.089085 2.992478 0.191920 0.354960 -0.320090 0.240190 20.374558 3.167355 3.239168 35.568241 2.418678 -3.233075 52.028358 33.220184 12.324117 2.130950 -1.798250 -0.237430 0.281390 0.171830 0.006910 
-1.051070 17.133340 -6.820820 -4.282530 -9.585326 4.252043 -14.892732 13.148018 2.762074 6.473267 -0.763626 -10.402975 -10.726649 6.777544 11.911188 -0.294296 4.606601 3.163334 0.117220 -0.089260 -0.121550 18.550127 -10.949845 2.776150 -1.842661 1.413990 -13.390402 9.456847 -5.628155 13.847744 -0.064508 -3.641260 3.293525 0.022490 0.645830 0.158970 -4.279005 -1.175100 -6.909479 13.939665 0.264526 6.543303 -4.851663 0.731680 4.998702 1.766672 -6.115637 -5.457608 -13.614139 8.221551 37.680223 2.092110 1.361500 1.995000 -24.201838 1.036592 -1.334595 -51.748868 -8.459218 0.643202 -19.996161 -14.432306 1.087393 -4.095317 2.975774 0.196330 0.351810 -0.321560 0.236300 19.871914 2.992661 3.173471 35.600357 2.710518 -3.052323 53.279519 33.669270 12.943373 2.128442 -1.800287 -0.245460 0.299200 0.175230 0.005080 
-1.056090 17.133140 -6.824470 -4.467309 -10.099946 4.304065 -14.872231 13.131533 2.755782 6.699495 -0.739040 -10.366548 -10.815095 6.800761 11.923047 -0.325938 4.621742 3.143000 0.162150 -0.038380 -0.092780 18.574967 -10.964525 2.770399 -1.425276 1.489834 -13.583318 8.911571 -5.542202 14.270772 -0.081771 -3.598277 3.295747 0.057640 0.621100 0.161550 -4.342689 -1.117765 -6.881535 14.543085 0.188728 6.778832 -5.245622 0.710793 5.360767 1.702315 -6.627188 -5.412414 -14.535210 8.618927 37.103726 2.168200 1.441850 0.269560 -23.238075 1.563918 -1.484960 -52.331952 -8.773415 0.770558 -20.253434 -14.468333 1.090442 -4.079584 2.970779 0.225790 0.330100 -0.295910 0.241580 18.934367 2.802563 3.032818 35.314561 3.386167 -2.653592 56.459430 34.614284 14.474188 2.111163 -1.826538 -0.243600 0.312540 0.162980 -0.004230 
-1.062380 17.143020 -6.822950 -4.315055 -10.239798 4.151964 -14.886009 13.151879 2.769642 6.694817 -0.718855 -10.194797 -10.961425 6.816162 11.824688 -0.337353 4.633187 3.125931 0.196680 -0.001780 -0.064280 18.564011 -10.940991 2.754614 -1.446073 1.392551 -13.275594 8.654018 -5.449569 13.979335 -0.104563 -3.555577 3.295947 0.078020 0.590610 0.161830 -4.306289 -1.210424 -6.881878 14.394444 -0.063942 7.008750 -5.299995 0.518858 5.833289 1.673801 -6.995754 -5.623402 -15.392569 9.139937 37.206815 2.482710 1.535040 -0.985740 -22.368344 1.579754 -1.315945 -52.922730 -8.701197 0.594229 -20.294250 -14.669385 1.044994 -4.047158 2.969262 0.258690 0.299420 -0.265120 0.242080 18.153645 3.061637 3.115661 34.728931 3.772563 -2.475598 59.974825 36.278849 16.519278 2.108188 -1.850245 -0.239450 0.318650 0.150350 -0.012400 
